HIERARCHY
ROOT Hip
{
   OFFSET 0.00000 0.00000 0.00000
   CHANNELS 6 Xposition Yposition Zposition Zrotation Yrotation Xrotation
   JOINT Head
   {
      OFFSET 0.000000 24.190001 0.000000
      CHANNELS 3 Zrotation Yrotation Xrotation
      End Site
      {
         OFFSET 0.000000 16.761999 0.000000
      }
      JOINT LeftShoulder
      {
         OFFSET 11.515001 0.000000 0.000000
         CHANNELS 3 Zrotation Yrotation Xrotation
         JOINT LeftHand
         {
            OFFSET 0.000000 -15.248000 0.000000
            CHANNELS 3 Zrotation Yrotation Xrotation
            End Site
            {
               OFFSET 0.000000 -14.262999 0.000000
            }
         }
      }
      JOINT RightShoulder
      {
         OFFSET -12.116999 0.000000 0.000000
         CHANNELS 3 Zrotation Yrotation Xrotation
         JOINT RightHand
         {
            OFFSET 0.000000 -16.378001 0.000000
            CHANNELS 3 Zrotation Yrotation Xrotation
            End Site
            {
               OFFSET 0.000000 -13.832000 0.000000
            }
         }
      }
   }
   JOINT LeftHip
   {
      OFFSET 8.994099 0.000000 0.000000
      CHANNELS 3 Zrotation Yrotation Xrotation
      JOINT LeftKnee
      {
         OFFSET 0.000000 -25.251000 0.000000
         CHANNELS 3 Zrotation Yrotation Xrotation
         JOINT LeftFoot
         {
            OFFSET 0.000000 -22.891001 0.000000
            CHANNELS 3 Zrotation Yrotation Xrotation
            End Site
            {
               OFFSET 0.000000 0.000000 14.411000
            }
         }
      }
   }
   JOINT RightHip
   {
      OFFSET -8.994099 0.000000 0.000000
      CHANNELS 3 Zrotation Yrotation Xrotation
      JOINT RightKnee
      {
         OFFSET 0.000000 -25.909001 0.000000
         CHANNELS 3 Zrotation Yrotation Xrotation
         JOINT RightFoot
         {
            OFFSET 0.000000 -21.714000 0.000000
            CHANNELS 3 Zrotation Yrotation Xrotation
            End Site
            {
               OFFSET 0.000000 0.000000 13.963001
            }
         }
      }
   }
}
MOTION
Frames: 26
Frame Time: 0.016670
8.492427 45.693073 -2.094417 -28.956478 -9.353350 -12.077375 -2.358420 4.105593 -6.783945 -68.314029 -82.619498 91.818008 123.621807 14.522480 209.452109 8.386492 -6.237877 8.834932 239.866354 141.835121 298.410664 264.150190 -23.741220 128.272783 -54.468061 111.688647 -119.454640 -18.722074 -169.540062 -25.545672 -348.671786 -15.683188 8.584491 73.718109 -243.380595 -303.059919 59.472902 155.714680 37.188509
7.833995 45.750708 -2.081081 -29.774868 -10.158752 -12.090943 -3.133103 5.506837 -7.199941 -67.900563 -83.204538 92.377120 124.582773 15.431422 211.146077 7.422520 -7.715782 9.496968 239.505474 141.463244 300.250389 260.219170 -19.722757 129.496835 -48.682696 117.724744 -110.740514 -17.409841 -168.343795 -24.318320 -350.940392 -29.923585 10.408688 56.171059 -239.163199 -326.743300 61.228712 159.078685 34.865780
7.185056 45.866570 -2.000093 -30.497788 -10.432905 -12.009375 -3.938131 6.524917 -7.993341 -67.602719 -82.926911 92.798994 126.337080 15.930363 212.398242 6.144806 -9.435900 10.501670 239.386300 141.505441 301.988235 255.548850 -15.599643 130.800499 -42.796521 124.092461 -101.412094 -16.673812 -168.541475 -23.193738 -357.814841 -49.060904 15.928988 41.189176 -229.095924 -350.220463 62.963129 162.264176 32.744630
6.530633 45.988778 -1.825714 -31.073915 -10.284683 -11.738308 -4.759821 7.349611 -9.696090 -67.509487 -81.454603 93.022887 128.346891 16.235073 212.980912 4.393796 -11.155576 12.928656 239.658661 142.048387 304.152941 250.927162 -11.825372 132.067090 -36.807719 130.456504 -92.157345 -16.445132 -169.958766 -22.250516 -375.618358 -66.617827 31.680637 33.180543 -219.402328 -367.825604 64.497053 166.189130 29.171588
5.848060 46.025433 -1.597313 -31.407020 -9.798874 -11.411199 -5.690987 8.082073 -11.803855 -67.461895 -79.511789 93.253802 130.222980 16.666100 213.214122 2.015371 -13.039455 16.166935 239.990035 143.043354 306.907775 246.934261 -8.582812 133.287822 -30.565544 136.623864 -83.632654 -16.781488 -172.594905 -21.751352 -395.559505 -70.671496 50.348640 33.588470 -219.073291 -375.332746 65.855229 169.333790 25.981614
5.199482 45.952210 -1.320439 -31.277738 -9.107296 -11.124523 -7.086633 8.910772 -13.594320 -67.555755 -78.200441 93.536244 131.446226 17.587232 212.596209 -1.031071 -15.182134 19.698056 240.929022 144.690741 309.884863 243.459661 -6.219428 134.440184 -24.002461 142.556703 -75.987255 -17.884160 -176.675042 -22.064644 -411.531875 -69.570852 65.059922 35.820101 -224.357043 -380.574589 66.552318 172.237085 21.559625
4.228010 45.582666 -1.044037 -31.481291 -7.578532 -10.474047 -8.445883 8.782335 -15.580488 -67.357174 -76.567192 94.327105 131.668084 19.306467 212.957539 -5.240509 -16.939581 24.529880 241.666791 147.060188 313.273183 242.107202 -3.797378 136.619588 -15.835010 147.935750 -69.738226 -19.698472 -181.814322 -23.974123 -423.445692 -67.338207 77.353777 37.058540 -233.965316 -385.673598 67.240412 174.408457 13.999875
3.263761 45.144285 -0.646007 -31.050470 -6.750634 -10.031824 -10.514287 8.944379 -17.630781 -66.579537 -74.079877 95.517477 132.408900 20.528050 214.047665 -9.864018 -18.143955 30.323957 242.370000 149.793575 317.175052 241.667529 -3.175152 137.517567 -7.092721 152.938194 -64.364288 -22.529116 -188.815279 -26.884499 -431.405758 -64.730065 85.998406 31.731177 -245.130408 -395.190948 68.913924 174.574567 4.743305
2.131998 44.650878 -0.213110 -30.417192 -6.606882 -9.418944 -12.892957 9.328039 -19.822063 -65.683416 -71.802732 97.551104 132.678761 22.930388 215.843636 -14.953871 -18.644241 36.876646 242.997503 153.011141 320.722871 242.723558 -4.476585 137.836988 2.265821 157.364335 -59.241079 -26.131703 -196.853374 -31.201414 -433.795068 -63.426107 89.949206 17.545204 -252.857783 -409.181525 70.278016 174.884193 -4.899877
0.931558 44.167151 0.109493 -29.571003 -7.446831 -8.132124 -15.787315 9.766441 -23.151268 -64.802840 -68.685058 100.158953 133.668633 25.538217 217.934862 -20.468390 -17.703330 44.327579 244.109431 156.082131 322.518527 245.024622 -8.443026 137.714796 11.862961 161.714345 -53.610001 -30.415990 -205.627599 -37.403800 -432.696801 -64.613856 90.545407 -0.376860 -255.528797 -424.103794 71.095822 174.960883 -15.190279
-0.238601 43.763246 0.279006 -28.567331 -8.502496 -5.993908 -18.832280 8.859902 -28.019593 -63.586152 -63.412296 103.249005 135.876163 27.492473 220.696444 -26.004996 -14.544336 52.677687 246.352793 158.199366 322.432604 248.509138 -15.178004 137.831428 21.289392 166.076582 -46.933655 -35.314544 -214.904116 -45.984488 -430.666896 -69.103367 89.912965 -24.296246 -256.699355 -443.133248 71.039145 172.161120 -25.964937
-1.401402 43.491997 0.305549 -27.588068 -9.562935 -3.271301 -21.538681 6.312651 -32.870033 -62.190177 -57.011664 106.316853 139.382646 28.402360 224.177737 -30.255689 -10.335271 59.834158 248.698471 159.558369 322.467875 253.149815 -24.339835 137.617998 28.694810 170.704568 -39.327130 -40.446837 -223.194845 -57.185718 -428.803128 -74.253398 89.121763 -53.288487 -256.688372 -466.376354 70.730297 169.006296 -34.369741
-2.423683 43.356995 0.393276 -26.234258 -11.791040 -0.971881 -24.138710 4.536367 -36.183856 -61.352632 -51.945040 108.722869 143.548610 28.561191 227.776960 -32.528598 -6.860257 64.500673 250.327744 161.180252 323.744628 256.853362 -32.759445 134.921726 30.976790 175.598358 -33.931000 -46.566812 -229.425918 -69.449794 -427.255708 -77.192196 87.831670 -81.660915 -252.134166 -490.914492 71.618338 166.274904 -45.080154
-3.540223 43.373460 0.613712 -25.193907 -15.446493 0.376661 -26.102907 4.936870 -37.918048 -61.619713 -49.539424 110.864646 147.225697 29.019848 231.661602 -34.431885 -3.921780 67.816183 252.729102 162.236404 323.864758 259.785343 -36.771423 131.396147 31.002174 181.249807 -29.577813 -52.379389 -231.945848 -80.399318 -424.420305 -77.645672 85.216725 -102.177390 -240.242506 -508.088647 72.753802 162.110783 -60.969062
-4.583316 43.754281 1.016424 -24.495319 -19.298597 1.391749 -27.406172 5.532396 -40.828197 -61.946886 -46.347980 112.539237 151.237710 29.266732 234.344091 -36.546601 0.432763 72.077982 257.429721 161.398162 322.381623 260.664498 -38.059819 128.791509 30.041009 186.995444 -26.571514 -58.402175 -232.514775 -88.450396 -421.240743 -77.015779 81.863806 -110.967112 -227.988299 -513.903433 72.033367 157.857939 -74.945835
-5.460114 44.294519 1.396676 -23.904339 -22.841980 2.657024 -28.112589 5.566145 -44.775548 -62.090265 -42.403962 113.754465 155.241170 29.470846 236.385634 -38.799870 6.004345 76.036091 263.090363 159.415099 320.173232 260.050382 -38.018998 126.862554 31.622253 191.109417 -25.374607 -63.892854 -232.463986 -93.909500 -419.508661 -77.050374 79.578302 -115.322854 -219.494290 -514.557820 70.352151 155.625123 -85.295655
-6.318676 44.947104 1.748736 -23.578766 -24.847240 4.126055 -27.841222 4.096968 -48.306677 -61.830246 -38.154024 114.577571 159.057019 29.488836 238.420785 -39.771273 11.795720 79.549041 268.418621 157.749106 318.790719 259.658302 -38.531867 125.904046 36.689731 193.320978 -25.573514 -68.119806 -232.304569 -97.038478 -418.761138 -77.824391 78.931592 -119.695336 -213.770277 -515.130135 69.057748 155.691362 -93.098641
-7.090644 45.639333 2.194114 -23.018210 -26.398686 5.214903 -27.059236 2.614551 -51.219032 -62.297800 -34.839166 115.457818 162.405192 30.417462 241.081390 -40.040700 16.738121 81.670717 272.011164 157.672608 317.546341 259.192401 -39.550180 124.613741 43.338988 193.888621 -27.062297 -71.379684 -232.176544 -98.014424 -418.831025 -78.380239 79.003186 -123.808326 -209.157727 -516.148871 68.504974 157.485106 -99.472163
-7.794254 46.369700 2.575864 -22.542245 -27.905071 6.188403 -25.478202 1.724841 -53.891244 -63.164633 -32.307232 115.519563 165.868808 31.026906 243.606893 -40.060408 20.874940 81.842858 273.445367 160.417825 315.472286 258.321224 -40.658613 123.910259 50.509922 193.322671 -28.266632 -73.270301 -232.180232 -97.699709 -419.491613 -79.009374 79.417246 -127.375651 -204.647808 -516.724192 69.155542 160.176091 -104.597954
-8.367612 47.085962 2.972363 -21.914843 -29.605373 6.878685 -23.653165 1.787344 -56.377696 -64.618664 -30.685789 115.284673 169.119896 31.919810 246.259083 -39.359484 24.389158 80.966483 273.536891 164.659578 312.420147 256.276074 -41.622073 124.117556 56.698698 191.531249 -28.593107 -74.343133 -232.185505 -97.053054 -421.050481 -79.058839 79.658147 -129.081368 -199.528335 -516.515243 71.052942 162.891515 -107.936585
-8.774032 47.768835 3.455287 -20.911275 -30.981608 7.200986 -22.018138 2.421653 -58.616724 -66.789893 -29.770619 115.193640 171.974574 33.506985 248.772428 -37.832957 27.586781 80.121671 272.994055 169.295077 308.752008 253.187627 -42.829582 125.245493 61.526706 187.999714 -27.941172 -75.633000 -232.031826 -96.510710 -423.678028 -78.463567 79.544458 -128.785525 -193.688715 -515.813864 74.139859 164.838351 -108.839611
-9.101625 48.371481 4.055004 -19.584254 -31.766950 7.125464 -20.413391 3.390390 -60.798854 -69.063881 -28.679858 115.214691 174.603787 35.651231 251.222909 -35.565833 31.212366 80.270200 272.476791 173.404023 304.832791 249.520252 -44.132332 127.328264 65.252533 183.326731 -26.357415 -76.997733 -231.768836 -95.953421 -427.129431 -77.547967 79.427997 -127.963799 -187.258447 -516.199907 77.326300 165.751506 -107.228560
-9.467106 48.801116 4.679014 -18.256554 -32.256870 6.938127 -18.642574 4.682280 -62.646283 -71.069156 -27.479873 115.107648 177.011606 37.789453 253.818354 -32.040168 35.148509 81.799076 272.677380 176.126769 300.994880 246.362738 -45.713073 129.700060 68.725199 179.235092 -24.132580 -77.854813 -231.616550 -95.141544 -430.686894 -77.139794 79.821859 -128.325280 -180.997540 -518.447093 79.569006 166.195824 -104.167919
-9.795927 49.036516 5.321733 -16.747226 -32.757734 6.715688 -17.152219 6.131955 -64.560901 -73.036340 -26.432252 115.103864 179.214069 40.267599 256.441447 -27.007505 38.707440 85.080504 273.689805 177.281836 297.959407 243.469661 -48.028394 132.285956 71.127288 176.676203 -21.152341 -78.481114 -231.514453 -93.826971 -433.571065 -77.364719 80.127647 -129.166800 -180.034935 -520.418778 79.546002 167.467468 -105.287796
-10.176159 49.084300 5.915453 -15.365603 -33.116824 6.608108 -15.831182 7.492497 -65.941733 -75.010538 -26.153602 115.243473 180.919348 42.814156 259.943094 -20.644894 41.414900 89.683628 275.264137 177.364057 295.413987 239.998040 -51.196567 136.339974 70.410016 175.994919 -17.372805 -76.701221 -231.441752 -92.810817 -435.396638 -78.247904 80.239102 -131.039338 -185.092936 -521.495926 78.138136 170.119809 -112.810416
-10.619862 48.948344 6.417702 -14.349078 -33.702148 6.802900 -14.252956 8.778914 -67.135651 -76.613802 -25.806432 115.093537 182.298446 45.039056 263.952005 -13.040486 44.142577 95.160818 277.077852 176.848282 292.733029 235.675486 -54.981793 141.058583 65.742019 175.820776 -14.624830 -72.749117 -231.328344 -92.050938 -437.126861 -79.641461 80.555319 -133.662431 -188.063890 -523.283960 77.042615 173.393423 -119.365820
